<?xml version="1.0" encoding="utf-8" standalone="no"?>
<!DOCTYPE svg PUBLIC "-//W3C//DTD SVG 1.1//EN"
  "http://www.w3.org/Graphics/SVG/1.1/DTD/svg11.dtd">
<svg xmlns:xlink="http://www.w3.org/1999/xlink" width="494.111006pt" height="424.7175pt" viewBox="0 0 494.111006 424.7175" xmlns="http://www.w3.org/2000/svg" version="1.1">
 <metadata>
  <rdf:RDF xmlns:dc="http://purl.org/dc/elements/1.1/" xmlns:cc="http://creativecommons.org/ns#" xmlns:rdf="http://www.w3.org/1999/02/22-rdf-syntax-ns#">
   <cc:Work>
    <dc:type rdf:resource="http://purl.org/dc/dcmitype/StillImage"/>
    <dc:date>2025-11-23T04:34:29.410048</dc:date>
    <dc:format>image/svg+xml</dc:format>
    <dc:creator>
     <cc:Agent>
      <dc:title>Matplotlib v3.6.3, https://matplotlib.org/</dc:title>
     </cc:Agent>
    </dc:creator>
   </cc:Work>
  </rdf:RDF>
 </metadata>
 <defs>
  <style type="text/css">*{stroke-linejoin: round; stroke-linecap: butt}</style>
 </defs>
 <g id="figure_1">
  <g id="patch_1">
   <path d="M 0 424.7175 
L 494.111006 424.7175 
L 494.111006 0 
L 0 0 
z
" style="fill: #ffffff"/>
  </g>
  <g id="axes_1">
   <g id="patch_2">
    <path d="M 253.244565 376.869079 
C 290.402467 376.869079 326.04348 360.807926 352.318085 332.222903 
C 378.592689 303.63788 393.35568 264.862827 393.35568 224.4375 
C 393.35568 184.012173 378.592689 145.23712 352.318085 116.652097 
C 326.04348 88.067074 290.402467 72.005921 253.244565 72.005921 
C 216.086663 72.005921 180.44565 88.067074 154.171046 116.652097 
C 127.896441 145.23712 113.13345 184.012173 113.13345 224.4375 
C 113.13345 264.862827 127.896441 303.63788 154.171046 332.222903 
C 180.44565 360.807926 216.086663 376.869079 253.244565 376.869079 
L 253.244565 376.869079 
z
" clip-path="url(#p7682e64e53)" style="fill: none; stroke: #000000; stroke-width: 2; stroke-linejoin: miter"/>
   </g>
   <g id="patch_3">
    <path d="M 253.244565 305.734342 
C 273.062113 305.734342 292.070653 297.168394 306.083776 281.923048 
C 320.096898 266.677703 327.970493 245.997675 327.970493 224.4375 
C 327.970493 202.877325 320.096898 182.197297 306.083776 166.951952 
C 292.070653 151.706606 273.062113 143.140658 253.244565 143.140658 
C 233.427018 143.140658 214.418477 151.706606 200.405355 166.951952 
C 186.392233 182.197297 178.518637 202.877325 178.518637 224.4375 
C 178.518637 245.997675 186.392233 266.677703 200.405355 281.923048 
C 214.418477 297.168394 233.427018 305.734342 253.244565 305.734342 
L 253.244565 305.734342 
z
" clip-path="url(#p7682e64e53)" style="fill: none; stroke: #000000; stroke-width: 2; stroke-linejoin: miter"/>
   </g>
   <g id="line2d_1">
    <path d="M 253.244565 305.734342 
L 253.244565 376.869079 
" clip-path="url(#p7682e64e53)" style="fill: none; stroke: #e69f00; stroke-width: 5; stroke-linecap: square"/>
   </g>
   <g id="line2d_2">
    <path d="M 290.607529 294.842631 
L 323.300123 356.44712 
" clip-path="url(#p7682e64e53)" style="fill: none; stroke: #56b4e9; stroke-width: 5; stroke-linecap: square"/>
   </g>
   <g id="line2d_3">
    <path d="M 317.959117 265.085921 
L 374.58435 300.653289 
" clip-path="url(#p7682e64e53)" style="fill: none; stroke: #009e73; stroke-width: 5; stroke-linecap: square"/>
   </g>
   <g id="line2d_4">
    <path d="M 327.970493 224.4375 
L 393.35568 224.4375 
" clip-path="url(#p7682e64e53)" style="fill: none; stroke: #f0e442; stroke-width: 5; stroke-linecap: square"/>
   </g>
   <g id="line2d_5">
    <path d="M 317.959117 183.789079 
L 374.58435 148.221711 
" clip-path="url(#p7682e64e53)" style="fill: none; stroke: #0072b2; stroke-width: 5; stroke-linecap: square"/>
   </g>
   <g id="line2d_6">
    <path d="M 290.607529 154.032369 
L 323.300123 92.42788 
" clip-path="url(#p7682e64e53)" style="fill: none; stroke: #d55e00; stroke-width: 5; stroke-linecap: square"/>
   </g>
   <g id="line2d_7">
    <path d="M 253.244565 143.140658 
L 253.244565 72.005921 
" clip-path="url(#p7682e64e53)" style="fill: none; stroke: #cc79a7; stroke-width: 5; stroke-linecap: square"/>
   </g>
   <g id="text_1">
    <!-- Core: 1–2 × FT240‑31 -->
    <g style="fill: #333333" transform="translate(89.781598 80.364202) scale(0.11 -0.11)">
     <defs>
      <path id="DejaVuSans-43" d="M 4122 4306 
L 4122 3641 
Q 3803 3938 3442 4084 
Q 3081 4231 2675 4231 
Q 1875 4231 1450 3742 
Q 1025 3253 1025 2328 
Q 1025 1406 1450 917 
Q 1875 428 2675 428 
Q 3081 428 3442 575 
Q 3803 722 4122 1019 
L 4122 359 
Q 3791 134 3420 21 
Q 3050 -91 2638 -91 
Q 1578 -91 968 557 
Q 359 1206 359 2328 
Q 359 3453 968 4101 
Q 1578 4750 2638 4750 
Q 3056 4750 3426 4639 
Q 3797 4528 4122 4306 
z
" transform="scale(0.015625)"/>
      <path id="DejaVuSans-6f" d="M 1959 3097 
Q 1497 3097 1228 2736 
Q 959 2375 959 1747 
Q 959 1119 1226 758 
Q 1494 397 1959 397 
Q 2419 397 2687 759 
Q 2956 1122 2956 1747 
Q 2956 2369 2687 2733 
Q 2419 3097 1959 3097 
z
M 1959 3584 
Q 2709 3584 3137 3096 
Q 3566 2609 3566 1747 
Q 3566 888 3137 398 
Q 2709 -91 1959 -91 
Q 1206 -91 779 398 
Q 353 888 353 1747 
Q 353 2609 779 3096 
Q 1206 3584 1959 3584 
z
" transform="scale(0.015625)"/>
      <path id="DejaVuSans-72" d="M 2631 2963 
Q 2534 3019 2420 3045 
Q 2306 3072 2169 3072 
Q 1681 3072 1420 2755 
Q 1159 2438 1159 1844 
L 1159 0 
L 581 0 
L 581 3500 
L 1159 3500 
L 1159 2956 
Q 1341 3275 1631 3429 
Q 1922 3584 2338 3584 
Q 2397 3584 2469 3576 
Q 2541 3569 2628 3553 
L 2631 2963 
z
" transform="scale(0.015625)"/>
      <path id="DejaVuSans-65" d="M 3597 1894 
L 3597 1613 
L 953 1613 
Q 991 1019 1311 708 
Q 1631 397 2203 397 
Q 2534 397 2845 478 
Q 3156 559 3463 722 
L 3463 178 
Q 3153 47 2828 -22 
Q 2503 -91 2169 -91 
Q 1331 -91 842 396 
Q 353 884 353 1716 
Q 353 2575 817 3079 
Q 1281 3584 2069 3584 
Q 2775 3584 3186 3129 
Q 3597 2675 3597 1894 
z
M 3022 2063 
Q 3016 2534 2758 2815 
Q 2500 3097 2075 3097 
Q 1594 3097 1305 2825 
Q 1016 2553 972 2059 
L 3022 2063 
z
" transform="scale(0.015625)"/>
      <path id="DejaVuSans-3a" d="M 750 794 
L 1409 794 
L 1409 0 
L 750 0 
L 750 794 
z
M 750 3309 
L 1409 3309 
L 1409 2516 
L 750 2516 
L 750 3309 
z
" transform="scale(0.015625)"/>
      <path id="DejaVuSans-20" transform="scale(0.015625)"/>
      <path id="DejaVuSans-31" d="M 794 531 
L 1825 531 
L 1825 4091 
L 703 3866 
L 703 4441 
L 1819 4666 
L 2450 4666 
L 2450 531 
L 3481 531 
L 3481 0 
L 794 0 
L 794 531 
z
" transform="scale(0.015625)"/>
      <path id="DejaVuSans-2013" d="M 313 1978 
L 2888 1978 
L 2888 1528 
L 313 1528 
L 313 1978 
z
" transform="scale(0.015625)"/>
      <path id="DejaVuSans-32" d="M 1228 531 
L 3431 531 
L 3431 0 
L 469 0 
L 469 531 
Q 828 903 1448 1529 
Q 2069 2156 2228 2338 
Q 2531 2678 2651 2914 
Q 2772 3150 2772 3378 
Q 2772 3750 2511 3984 
Q 2250 4219 1831 4219 
Q 1534 4219 1204 4116 
Q 875 4013 500 3803 
L 500 4441 
Q 881 4594 1212 4672 
Q 1544 4750 1819 4750 
Q 2544 4750 2975 4387 
Q 3406 4025 3406 3419 
Q 3406 3131 3298 2873 
Q 3191 2616 2906 2266 
Q 2828 2175 2409 1742 
Q 1991 1309 1228 531 
z
" transform="scale(0.015625)"/>
      <path id="DejaVuSans-d7" d="M 4488 3438 
L 3059 2003 
L 4488 575 
L 4116 197 
L 2681 1631 
L 1247 197 
L 878 575 
L 2303 2003 
L 878 3438 
L 1247 3816 
L 2681 2381 
L 4116 3816 
L 4488 3438 
z
" transform="scale(0.015625)"/>
      <path id="DejaVuSans-46" d="M 628 4666 
L 3309 4666 
L 3309 4134 
L 1259 4134 
L 1259 2759 
L 3109 2759 
L 3109 2228 
L 1259 2228 
L 1259 0 
L 628 0 
L 628 4666 
z
" transform="scale(0.015625)"/>
      <path id="DejaVuSans-54" d="M -19 4666 
L 3928 4666 
L 3928 4134 
L 2272 4134 
L 2272 0 
L 1638 0 
L 1638 4134 
L -19 4134 
L -19 4666 
z
" transform="scale(0.015625)"/>
      <path id="DejaVuSans-34" d="M 2419 4116 
L 825 1625 
L 2419 1625 
L 2419 4116 
z
M 2253 4666 
L 3047 4666 
L 3047 1625 
L 3713 1625 
L 3713 1100 
L 3047 1100 
L 3047 0 
L 2419 0 
L 2419 1100 
L 313 1100 
L 313 1709 
L 2253 4666 
z
" transform="scale(0.015625)"/>
      <path id="DejaVuSans-30" d="M 2034 4250 
Q 1547 4250 1301 3770 
Q 1056 3291 1056 2328 
Q 1056 1369 1301 889 
Q 1547 409 2034 409 
Q 2525 409 2770 889 
Q 3016 1369 3016 2328 
Q 3016 3291 2770 3770 
Q 2525 4250 2034 4250 
z
M 2034 4750 
Q 2819 4750 3233 4129 
Q 3647 3509 3647 2328 
Q 3647 1150 3233 529 
Q 2819 -91 2034 -91 
Q 1250 -91 836 529 
Q 422 1150 422 2328 
Q 422 3509 836 4129 
Q 1250 4750 2034 4750 
z
" transform="scale(0.015625)"/>
      <path id="DejaVuSans-2011" d="M 313 2009 
L 1997 2009 
L 1997 1497 
L 313 1497 
L 313 2009 
z
" transform="scale(0.015625)"/>
      <path id="DejaVuSans-33" d="M 2597 2516 
Q 3050 2419 3304 2112 
Q 3559 1806 3559 1356 
Q 3559 666 3084 287 
Q 2609 -91 1734 -91 
Q 1441 -91 1130 -33 
Q 819 25 488 141 
L 488 750 
Q 750 597 1062 519 
Q 1375 441 1716 441 
Q 2309 441 2620 675 
Q 2931 909 2931 1356 
Q 2931 1769 2642 2001 
Q 2353 2234 1838 2234 
L 1294 2234 
L 1294 2753 
L 1863 2753 
Q 2328 2753 2575 2939 
Q 2822 3125 2822 3475 
Q 2822 3834 2567 4026 
Q 2313 4219 1838 4219 
Q 1578 4219 1281 4162 
Q 984 4106 628 3988 
L 628 4550 
Q 988 4650 1302 4700 
Q 1616 4750 1894 4750 
Q 2613 4750 3031 4423 
Q 3450 4097 3450 3541 
Q 3450 3153 3228 2886 
Q 3006 2619 2597 2516 
z
" transform="scale(0.015625)"/>
     </defs>
     <use xlink:href="#DejaVuSans-43"/>
     <use xlink:href="#DejaVuSans-6f" x="69.824219"/>
     <use xlink:href="#DejaVuSans-72" x="131.005859"/>
     <use xlink:href="#DejaVuSans-65" x="169.869141"/>
     <use xlink:href="#DejaVuSans-3a" x="231.392578"/>
     <use xlink:href="#DejaVuSans-20" x="265.083984"/>
     <use xlink:href="#DejaVuSans-31" x="296.871094"/>
     <use xlink:href="#DejaVuSans-2013" x="360.494141"/>
     <use xlink:href="#DejaVuSans-32" x="410.494141"/>
     <use xlink:href="#DejaVuSans-20" x="474.117188"/>
     <use xlink:href="#DejaVuSans-d7" x="505.904297"/>
     <use xlink:href="#DejaVuSans-20" x="589.693359"/>
     <use xlink:href="#DejaVuSans-46" x="621.480469"/>
     <use xlink:href="#DejaVuSans-54" x="677.25"/>
     <use xlink:href="#DejaVuSans-32" x="738.333984"/>
     <use xlink:href="#DejaVuSans-34" x="801.957031"/>
     <use xlink:href="#DejaVuSans-30" x="865.580078"/>
     <use xlink:href="#DejaVuSans-2011" x="929.203125"/>
     <use xlink:href="#DejaVuSans-33" x="965.287109"/>
     <use xlink:href="#DejaVuSans-31" x="1028.910156"/>
    </g>
    <!-- Wind: 6–8 turns of feedline -->
    <g style="fill: #333333" transform="translate(89.781598 92.681796) scale(0.11 -0.11)">
     <defs>
      <path id="DejaVuSans-57" d="M 213 4666 
L 850 4666 
L 1831 722 
L 2809 4666 
L 3519 4666 
L 4500 722 
L 5478 4666 
L 6119 4666 
L 4947 0 
L 4153 0 
L 3169 4050 
L 2175 0 
L 1381 0 
L 213 4666 
z
" transform="scale(0.015625)"/>
      <path id="DejaVuSans-69" d="M 603 3500 
L 1178 3500 
L 1178 0 
L 603 0 
L 603 3500 
z
M 603 4863 
L 1178 4863 
L 1178 4134 
L 603 4134 
L 603 4863 
z
" transform="scale(0.015625)"/>
      <path id="DejaVuSans-6e" d="M 3513 2113 
L 3513 0 
L 2938 0 
L 2938 2094 
Q 2938 2591 2744 2837 
Q 2550 3084 2163 3084 
Q 1697 3084 1428 2787 
Q 1159 2491 1159 1978 
L 1159 0 
L 581 0 
L 581 3500 
L 1159 3500 
L 1159 2956 
Q 1366 3272 1645 3428 
Q 1925 3584 2291 3584 
Q 2894 3584 3203 3211 
Q 3513 2838 3513 2113 
z
" transform="scale(0.015625)"/>
      <path id="DejaVuSans-64" d="M 2906 2969 
L 2906 4863 
L 3481 4863 
L 3481 0 
L 2906 0 
L 2906 525 
Q 2725 213 2448 61 
Q 2172 -91 1784 -91 
Q 1150 -91 751 415 
Q 353 922 353 1747 
Q 353 2572 751 3078 
Q 1150 3584 1784 3584 
Q 2172 3584 2448 3432 
Q 2725 3281 2906 2969 
z
M 947 1747 
Q 947 1113 1208 752 
Q 1469 391 1925 391 
Q 2381 391 2643 752 
Q 2906 1113 2906 1747 
Q 2906 2381 2643 2742 
Q 2381 3103 1925 3103 
Q 1469 3103 1208 2742 
Q 947 2381 947 1747 
z
" transform="scale(0.015625)"/>
      <path id="DejaVuSans-36" d="M 2113 2584 
Q 1688 2584 1439 2293 
Q 1191 2003 1191 1497 
Q 1191 994 1439 701 
Q 1688 409 2113 409 
Q 2538 409 2786 701 
Q 3034 994 3034 1497 
Q 3034 2003 2786 2293 
Q 2538 2584 2113 2584 
z
M 3366 4563 
L 3366 3988 
Q 3128 4100 2886 4159 
Q 2644 4219 2406 4219 
Q 1781 4219 1451 3797 
Q 1122 3375 1075 2522 
Q 1259 2794 1537 2939 
Q 1816 3084 2150 3084 
Q 2853 3084 3261 2657 
Q 3669 2231 3669 1497 
Q 3669 778 3244 343 
Q 2819 -91 2113 -91 
Q 1303 -91 875 529 
Q 447 1150 447 2328 
Q 447 3434 972 4092 
Q 1497 4750 2381 4750 
Q 2619 4750 2861 4703 
Q 3103 4656 3366 4563 
z
" transform="scale(0.015625)"/>
      <path id="DejaVuSans-38" d="M 2034 2216 
Q 1584 2216 1326 1975 
Q 1069 1734 1069 1313 
Q 1069 891 1326 650 
Q 1584 409 2034 409 
Q 2484 409 2743 651 
Q 3003 894 3003 1313 
Q 3003 1734 2745 1975 
Q 2488 2216 2034 2216 
z
M 1403 2484 
Q 997 2584 770 2862 
Q 544 3141 544 3541 
Q 544 4100 942 4425 
Q 1341 4750 2034 4750 
Q 2731 4750 3128 4425 
Q 3525 4100 3525 3541 
Q 3525 3141 3298 2862 
Q 3072 2584 2669 2484 
Q 3125 2378 3379 2068 
Q 3634 1759 3634 1313 
Q 3634 634 3220 271 
Q 2806 -91 2034 -91 
Q 1263 -91 848 271 
Q 434 634 434 1313 
Q 434 1759 690 2068 
Q 947 2378 1403 2484 
z
M 1172 3481 
Q 1172 3119 1398 2916 
Q 1625 2713 2034 2713 
Q 2441 2713 2670 2916 
Q 2900 3119 2900 3481 
Q 2900 3844 2670 4047 
Q 2441 4250 2034 4250 
Q 1625 4250 1398 4047 
Q 1172 3844 1172 3481 
z
" transform="scale(0.015625)"/>
      <path id="DejaVuSans-74" d="M 1172 4494 
L 1172 3500 
L 2356 3500 
L 2356 3053 
L 1172 3053 
L 1172 1153 
Q 1172 725 1289 603 
Q 1406 481 1766 481 
L 2356 481 
L 2356 0 
L 1766 0 
Q 1100 0 847 248 
Q 594 497 594 1153 
L 594 3053 
L 172 3053 
L 172 3500 
L 594 3500 
L 594 4494 
L 1172 4494 
z
" transform="scale(0.015625)"/>
      <path id="DejaVuSans-75" d="M 544 1381 
L 544 3500 
L 1119 3500 
L 1119 1403 
Q 1119 906 1312 657 
Q 1506 409 1894 409 
Q 2359 409 2629 706 
Q 2900 1003 2900 1516 
L 2900 3500 
L 3475 3500 
L 3475 0 
L 2900 0 
L 2900 538 
Q 2691 219 2414 64 
Q 2138 -91 1772 -91 
Q 1169 -91 856 284 
Q 544 659 544 1381 
z
M 1991 3584 
L 1991 3584 
z
" transform="scale(0.015625)"/>
      <path id="DejaVuSans-73" d="M 2834 3397 
L 2834 2853 
Q 2591 2978 2328 3040 
Q 2066 3103 1784 3103 
Q 1356 3103 1142 2972 
Q 928 2841 928 2578 
Q 928 2378 1081 2264 
Q 1234 2150 1697 2047 
L 1894 2003 
Q 2506 1872 2764 1633 
Q 3022 1394 3022 966 
Q 3022 478 2636 193 
Q 2250 -91 1575 -91 
Q 1294 -91 989 -36 
Q 684 19 347 128 
L 347 722 
Q 666 556 975 473 
Q 1284 391 1588 391 
Q 1994 391 2212 530 
Q 2431 669 2431 922 
Q 2431 1156 2273 1281 
Q 2116 1406 1581 1522 
L 1381 1569 
Q 847 1681 609 1914 
Q 372 2147 372 2553 
Q 372 3047 722 3315 
Q 1072 3584 1716 3584 
Q 2034 3584 2315 3537 
Q 2597 3491 2834 3397 
z
" transform="scale(0.015625)"/>
      <path id="DejaVuSans-66" d="M 2375 4863 
L 2375 4384 
L 1825 4384 
Q 1516 4384 1395 4259 
Q 1275 4134 1275 3809 
L 1275 3500 
L 2222 3500 
L 2222 3053 
L 1275 3053 
L 1275 0 
L 697 0 
L 697 3053 
L 147 3053 
L 147 3500 
L 697 3500 
L 697 3744 
Q 697 4328 969 4595 
Q 1241 4863 1831 4863 
L 2375 4863 
z
" transform="scale(0.015625)"/>
      <path id="DejaVuSans-6c" d="M 603 4863 
L 1178 4863 
L 1178 0 
L 603 0 
L 603 4863 
z
" transform="scale(0.015625)"/>
     </defs>
     <use xlink:href="#DejaVuSans-57"/>
     <use xlink:href="#DejaVuSans-69" x="96.626953"/>
     <use xlink:href="#DejaVuSans-6e" x="124.410156"/>
     <use xlink:href="#DejaVuSans-64" x="187.789062"/>
     <use xlink:href="#DejaVuSans-3a" x="251.265625"/>
     <use xlink:href="#DejaVuSans-20" x="284.957031"/>
     <use xlink:href="#DejaVuSans-36" x="316.744141"/>
     <use xlink:href="#DejaVuSans-2013" x="380.367188"/>
     <use xlink:href="#DejaVuSans-38" x="430.367188"/>
     <use xlink:href="#DejaVuSans-20" x="493.990234"/>
     <use xlink:href="#DejaVuSans-74" x="525.777344"/>
     <use xlink:href="#DejaVuSans-75" x="564.986328"/>
     <use xlink:href="#DejaVuSans-72" x="628.365234"/>
     <use xlink:href="#DejaVuSans-6e" x="667.728516"/>
     <use xlink:href="#DejaVuSans-73" x="731.107422"/>
     <use xlink:href="#DejaVuSans-20" x="783.207031"/>
     <use xlink:href="#DejaVuSans-6f" x="814.994141"/>
     <use xlink:href="#DejaVuSans-66" x="876.175781"/>
     <use xlink:href="#DejaVuSans-20" x="911.380859"/>
     <use xlink:href="#DejaVuSans-66" x="943.167969"/>
     <use xlink:href="#DejaVuSans-65" x="978.373047"/>
     <use xlink:href="#DejaVuSans-65" x="1039.896484"/>
     <use xlink:href="#DejaVuSans-64" x="1101.419922"/>
     <use xlink:href="#DejaVuSans-6c" x="1164.896484"/>
     <use xlink:href="#DejaVuSans-69" x="1192.679688"/>
     <use xlink:href="#DejaVuSans-6e" x="1220.462891"/>
     <use xlink:href="#DejaVuSans-65" x="1283.841797"/>
    </g>
    <!-- Place 6–10 ft below feedpoint -->
    <g style="fill: #333333" transform="translate(89.781598 104.99939) scale(0.11 -0.11)">
     <defs>
      <path id="DejaVuSans-50" d="M 1259 4147 
L 1259 2394 
L 2053 2394 
Q 2494 2394 2734 2622 
Q 2975 2850 2975 3272 
Q 2975 3691 2734 3919 
Q 2494 4147 2053 4147 
L 1259 4147 
z
M 628 4666 
L 2053 4666 
Q 2838 4666 3239 4311 
Q 3641 3956 3641 3272 
Q 3641 2581 3239 2228 
Q 2838 1875 2053 1875 
L 1259 1875 
L 1259 0 
L 628 0 
L 628 4666 
z
" transform="scale(0.015625)"/>
      <path id="DejaVuSans-61" d="M 2194 1759 
Q 1497 1759 1228 1600 
Q 959 1441 959 1056 
Q 959 750 1161 570 
Q 1363 391 1709 391 
Q 2188 391 2477 730 
Q 2766 1069 2766 1631 
L 2766 1759 
L 2194 1759 
z
M 3341 1997 
L 3341 0 
L 2766 0 
L 2766 531 
Q 2569 213 2275 61 
Q 1981 -91 1556 -91 
Q 1019 -91 701 211 
Q 384 513 384 1019 
Q 384 1609 779 1909 
Q 1175 2209 1959 2209 
L 2766 2209 
L 2766 2266 
Q 2766 2663 2505 2880 
Q 2244 3097 1772 3097 
Q 1472 3097 1187 3025 
Q 903 2953 641 2809 
L 641 3341 
Q 956 3463 1253 3523 
Q 1550 3584 1831 3584 
Q 2591 3584 2966 3190 
Q 3341 2797 3341 1997 
z
" transform="scale(0.015625)"/>
      <path id="DejaVuSans-63" d="M 3122 3366 
L 3122 2828 
Q 2878 2963 2633 3030 
Q 2388 3097 2138 3097 
Q 1578 3097 1268 2742 
Q 959 2388 959 1747 
Q 959 1106 1268 751 
Q 1578 397 2138 397 
Q 2388 397 2633 464 
Q 2878 531 3122 666 
L 3122 134 
Q 2881 22 2623 -34 
Q 2366 -91 2075 -91 
Q 1284 -91 818 406 
Q 353 903 353 1747 
Q 353 2603 823 3093 
Q 1294 3584 2113 3584 
Q 2378 3584 2631 3529 
Q 2884 3475 3122 3366 
z
" transform="scale(0.015625)"/>
      <path id="DejaVuSans-62" d="M 3116 1747 
Q 3116 2381 2855 2742 
Q 2594 3103 2138 3103 
Q 1681 3103 1420 2742 
Q 1159 2381 1159 1747 
Q 1159 1113 1420 752 
Q 1681 391 2138 391 
Q 2594 391 2855 752 
Q 3116 1113 3116 1747 
z
M 1159 2969 
Q 1341 3281 1617 3432 
Q 1894 3584 2278 3584 
Q 2916 3584 3314 3078 
Q 3713 2572 3713 1747 
Q 3713 922 3314 415 
Q 2916 -91 2278 -91 
Q 1894 -91 1617 61 
Q 1341 213 1159 525 
L 1159 0 
L 581 0 
L 581 4863 
L 1159 4863 
L 1159 2969 
z
" transform="scale(0.015625)"/>
      <path id="DejaVuSans-77" d="M 269 3500 
L 844 3500 
L 1563 769 
L 2278 3500 
L 2956 3500 
L 3675 769 
L 4391 3500 
L 4966 3500 
L 4050 0 
L 3372 0 
L 2619 2869 
L 1863 0 
L 1184 0 
L 269 3500 
z
" transform="scale(0.015625)"/>
      <path id="DejaVuSans-70" d="M 1159 525 
L 1159 -1331 
L 581 -1331 
L 581 3500 
L 1159 3500 
L 1159 2969 
Q 1341 3281 1617 3432 
Q 1894 3584 2278 3584 
Q 2916 3584 3314 3078 
Q 3713 2572 3713 1747 
Q 3713 922 3314 415 
Q 2916 -91 2278 -91 
Q 1894 -91 1617 61 
Q 1341 213 1159 525 
z
M 3116 1747 
Q 3116 2381 2855 2742 
Q 2594 3103 2138 3103 
Q 1681 3103 1420 2742 
Q 1159 2381 1159 1747 
Q 1159 1113 1420 752 
Q 1681 391 2138 391 
Q 2594 391 2855 752 
Q 3116 1113 3116 1747 
z
" transform="scale(0.015625)"/>
     </defs>
     <use xlink:href="#DejaVuSans-50"/>
     <use xlink:href="#DejaVuSans-6c" x="60.302734"/>
     <use xlink:href="#DejaVuSans-61" x="88.085938"/>
     <use xlink:href="#DejaVuSans-63" x="149.365234"/>
     <use xlink:href="#DejaVuSans-65" x="204.345703"/>
     <use xlink:href="#DejaVuSans-20" x="265.869141"/>
     <use xlink:href="#DejaVuSans-36" x="297.65625"/>
     <use xlink:href="#DejaVuSans-2013" x="361.279297"/>
     <use xlink:href="#DejaVuSans-31" x="411.279297"/>
     <use xlink:href="#DejaVuSans-30" x="474.902344"/>
     <use xlink:href="#DejaVuSans-20" x="538.525391"/>
     <use xlink:href="#DejaVuSans-66" x="570.3125"/>
     <use xlink:href="#DejaVuSans-74" x="603.767578"/>
     <use xlink:href="#DejaVuSans-20" x="642.976562"/>
     <use xlink:href="#DejaVuSans-62" x="674.763672"/>
     <use xlink:href="#DejaVuSans-65" x="738.240234"/>
     <use xlink:href="#DejaVuSans-6c" x="799.763672"/>
     <use xlink:href="#DejaVuSans-6f" x="827.546875"/>
     <use xlink:href="#DejaVuSans-77" x="888.728516"/>
     <use xlink:href="#DejaVuSans-20" x="970.515625"/>
     <use xlink:href="#DejaVuSans-66" x="1002.302734"/>
     <use xlink:href="#DejaVuSans-65" x="1037.507812"/>
     <use xlink:href="#DejaVuSans-65" x="1099.03125"/>
     <use xlink:href="#DejaVuSans-64" x="1160.554688"/>
     <use xlink:href="#DejaVuSans-70" x="1224.03125"/>
     <use xlink:href="#DejaVuSans-6f" x="1287.507812"/>
     <use xlink:href="#DejaVuSans-69" x="1348.689453"/>
     <use xlink:href="#DejaVuSans-6e" x="1376.472656"/>
     <use xlink:href="#DejaVuSans-74" x="1439.851562"/>
    </g>
   </g>
   <g id="patch_4">
    <path d="M 68.103029 263.993668 
Q 89.78134 249.842932 109.587199 236.914457 
" style="fill: none; stroke: #000000; stroke-width: 2; stroke-linecap: round"/>
    <path d="M 105.144431 237.426133 
L 109.587199 236.914457 
L 107.33088 240.775677 
L 105.144431 237.426133 
z
" style="fill: #e69f00; stroke: #000000; stroke-width: 2; stroke-linecap: round"/>
   </g>
   <g id="text_2">
    <!-- to antenna -->
    <g style="fill: #333333" transform="translate(7.2 267.845296) scale(0.1 -0.1)">
     <use xlink:href="#DejaVuSans-74"/>
     <use xlink:href="#DejaVuSans-6f" x="39.208984"/>
     <use xlink:href="#DejaVuSans-20" x="100.390625"/>
     <use xlink:href="#DejaVuSans-61" x="132.177734"/>
     <use xlink:href="#DejaVuSans-6e" x="193.457031"/>
     <use xlink:href="#DejaVuSans-74" x="256.835938"/>
     <use xlink:href="#DejaVuSans-65" x="296.044922"/>
     <use xlink:href="#DejaVuSans-6e" x="357.568359"/>
     <use xlink:href="#DejaVuSans-6e" x="420.947266"/>
     <use xlink:href="#DejaVuSans-61" x="484.326172"/>
    </g>
   </g>
   <g id="patch_5">
    <path d="M 438.386102 184.881332 
Q 416.707791 199.032068 396.901931 211.960543 
" style="fill: none; stroke: #000000; stroke-width: 2; stroke-linecap: round"/>
    <path d="M 401.344699 211.448867 
L 396.901931 211.960543 
L 399.158251 208.099323 
L 401.344699 211.448867 
z
" style="fill: #e69f00; stroke: #000000; stroke-width: 2; stroke-linecap: round"/>
   </g>
   <g id="text_3">
    <!-- to shack -->
    <g style="fill: #333333" transform="translate(444.729756 186.548454) scale(0.1 -0.1)">
     <defs>
      <path id="DejaVuSans-68" d="M 3513 2113 
L 3513 0 
L 2938 0 
L 2938 2094 
Q 2938 2591 2744 2837 
Q 2550 3084 2163 3084 
Q 1697 3084 1428 2787 
Q 1159 2491 1159 1978 
L 1159 0 
L 581 0 
L 581 4863 
L 1159 4863 
L 1159 2956 
Q 1366 3272 1645 3428 
Q 1925 3584 2291 3584 
Q 2894 3584 3203 3211 
Q 3513 2838 3513 2113 
z
" transform="scale(0.015625)"/>
      <path id="DejaVuSans-6b" d="M 581 4863 
L 1159 4863 
L 1159 1991 
L 2875 3500 
L 3609 3500 
L 1753 1863 
L 3688 0 
L 2938 0 
L 1159 1709 
L 1159 0 
L 581 0 
L 581 4863 
z
" transform="scale(0.015625)"/>
     </defs>
     <use xlink:href="#DejaVuSans-74"/>
     <use xlink:href="#DejaVuSans-6f" x="39.208984"/>
     <use xlink:href="#DejaVuSans-20" x="100.390625"/>
     <use xlink:href="#DejaVuSans-73" x="132.177734"/>
     <use xlink:href="#DejaVuSans-68" x="184.277344"/>
     <use xlink:href="#DejaVuSans-61" x="247.65625"/>
     <use xlink:href="#DejaVuSans-63" x="308.935547"/>
     <use xlink:href="#DejaVuSans-6b" x="363.916016"/>
    </g>
   </g>
   <g id="text_4">
    <!-- 1:1 Common‑Mode Choke on FT240‑31 -->
    <g style="fill: #333333" transform="translate(97.018315 19.3575) scale(0.16 -0.16)">
     <defs>
      <path id="DejaVuSans-6d" d="M 3328 2828 
Q 3544 3216 3844 3400 
Q 4144 3584 4550 3584 
Q 5097 3584 5394 3201 
Q 5691 2819 5691 2113 
L 5691 0 
L 5113 0 
L 5113 2094 
Q 5113 2597 4934 2840 
Q 4756 3084 4391 3084 
Q 3944 3084 3684 2787 
Q 3425 2491 3425 1978 
L 3425 0 
L 2847 0 
L 2847 2094 
Q 2847 2600 2669 2842 
Q 2491 3084 2119 3084 
Q 1678 3084 1418 2786 
Q 1159 2488 1159 1978 
L 1159 0 
L 581 0 
L 581 3500 
L 1159 3500 
L 1159 2956 
Q 1356 3278 1631 3431 
Q 1906 3584 2284 3584 
Q 2666 3584 2933 3390 
Q 3200 3197 3328 2828 
z
" transform="scale(0.015625)"/>
      <path id="DejaVuSans-4d" d="M 628 4666 
L 1569 4666 
L 2759 1491 
L 3956 4666 
L 4897 4666 
L 4897 0 
L 4281 0 
L 4281 4097 
L 3078 897 
L 2444 897 
L 1241 4097 
L 1241 0 
L 628 0 
L 628 4666 
z
" transform="scale(0.015625)"/>
     </defs>
     <use xlink:href="#DejaVuSans-31"/>
     <use xlink:href="#DejaVuSans-3a" x="63.623047"/>
     <use xlink:href="#DejaVuSans-31" x="97.314453"/>
     <use xlink:href="#DejaVuSans-20" x="160.9375"/>
     <use xlink:href="#DejaVuSans-43" x="192.724609"/>
     <use xlink:href="#DejaVuSans-6f" x="262.548828"/>
     <use xlink:href="#DejaVuSans-6d" x="323.730469"/>
     <use xlink:href="#DejaVuSans-6d" x="421.142578"/>
     <use xlink:href="#DejaVuSans-6f" x="518.554688"/>
     <use xlink:href="#DejaVuSans-6e" x="579.736328"/>
     <use xlink:href="#DejaVuSans-2011" x="643.115234"/>
     <use xlink:href="#DejaVuSans-4d" x="679.199219"/>
     <use xlink:href="#DejaVuSans-6f" x="765.478516"/>
     <use xlink:href="#DejaVuSans-64" x="826.660156"/>
     <use xlink:href="#DejaVuSans-65" x="890.136719"/>
     <use xlink:href="#DejaVuSans-20" x="951.660156"/>
     <use xlink:href="#DejaVuSans-43" x="983.447266"/>
     <use xlink:href="#DejaVuSans-68" x="1053.271484"/>
     <use xlink:href="#DejaVuSans-6f" x="1116.650391"/>
     <use xlink:href="#DejaVuSans-6b" x="1177.832031"/>
     <use xlink:href="#DejaVuSans-65" x="1232.117188"/>
     <use xlink:href="#DejaVuSans-20" x="1293.640625"/>
     <use xlink:href="#DejaVuSans-6f" x="1325.427734"/>
     <use xlink:href="#DejaVuSans-6e" x="1386.609375"/>
     <use xlink:href="#DejaVuSans-20" x="1449.988281"/>
     <use xlink:href="#DejaVuSans-46" x="1481.775391"/>
     <use xlink:href="#DejaVuSans-54" x="1537.544922"/>
     <use xlink:href="#DejaVuSans-32" x="1598.628906"/>
     <use xlink:href="#DejaVuSans-34" x="1662.251953"/>
     <use xlink:href="#DejaVuSans-30" x="1725.875"/>
     <use xlink:href="#DejaVuSans-2011" x="1789.498047"/>
     <use xlink:href="#DejaVuSans-33" x="1825.582031"/>
     <use xlink:href="#DejaVuSans-31" x="1889.205078"/>
    </g>
   </g>
  </g>
 </g>
 <defs>
  <clipPath id="p7682e64e53">
   <rect x="75.770486" y="31.3575" width="354.948158" height="386.16"/>
  </clipPath>
 </defs>
</svg>
